<mxfile host="app.diagrams.net" modified="2021-05-23T04:02:14.779Z" agent="5.0 (Windows NT 10.0; Win64; x64) AppleWebKit/537.36 (KHTML, like Gecko) Chrome/90.0.4430.212 Safari/537.36" etag="GhVqQzdCodGKr7kYI4Jc" version="14.7.0" type="github">
  <diagram id="C5RBs43oDa-KdzZeNtuy" name="Page-1">
    <mxGraphModel dx="2062" dy="1160" grid="0" gridSize="10" guides="1" tooltips="1" connect="1" arrows="1" fold="1" page="1" pageScale="1" pageWidth="827" pageHeight="1169" math="0" shadow="0">
      <root>
        <mxCell id="WIyWlLk6GJQsqaUBKTNV-0" />
        <mxCell id="WIyWlLk6GJQsqaUBKTNV-1" parent="WIyWlLk6GJQsqaUBKTNV-0" />
        <mxCell id="WIyWlLk6GJQsqaUBKTNV-2" value="" style="rounded=0;html=1;jettySize=auto;orthogonalLoop=1;fontSize=11;endArrow=block;endFill=0;endSize=8;strokeWidth=1;shadow=0;labelBackgroundColor=none;edgeStyle=orthogonalEdgeStyle;" parent="WIyWlLk6GJQsqaUBKTNV-1" source="WIyWlLk6GJQsqaUBKTNV-3" target="WIyWlLk6GJQsqaUBKTNV-6" edge="1">
          <mxGeometry relative="1" as="geometry" />
        </mxCell>
        <mxCell id="WIyWlLk6GJQsqaUBKTNV-3" value="Lamp doesn&#39;t work" style="rounded=1;whiteSpace=wrap;html=1;fontSize=12;glass=0;strokeWidth=1;shadow=0;" parent="WIyWlLk6GJQsqaUBKTNV-1" vertex="1">
          <mxGeometry x="160" y="80" width="120" height="40" as="geometry" />
        </mxCell>
        <mxCell id="WIyWlLk6GJQsqaUBKTNV-4" value="Yes" style="rounded=0;html=1;jettySize=auto;orthogonalLoop=1;fontSize=11;endArrow=block;endFill=0;endSize=8;strokeWidth=1;shadow=0;labelBackgroundColor=none;edgeStyle=orthogonalEdgeStyle;" parent="WIyWlLk6GJQsqaUBKTNV-1" source="WIyWlLk6GJQsqaUBKTNV-6" target="WIyWlLk6GJQsqaUBKTNV-10" edge="1">
          <mxGeometry y="20" relative="1" as="geometry">
            <mxPoint as="offset" />
          </mxGeometry>
        </mxCell>
        <mxCell id="WIyWlLk6GJQsqaUBKTNV-5" value="No" style="edgeStyle=orthogonalEdgeStyle;rounded=0;html=1;jettySize=auto;orthogonalLoop=1;fontSize=11;endArrow=block;endFill=0;endSize=8;strokeWidth=1;shadow=0;labelBackgroundColor=none;" parent="WIyWlLk6GJQsqaUBKTNV-1" source="WIyWlLk6GJQsqaUBKTNV-6" target="WIyWlLk6GJQsqaUBKTNV-7" edge="1">
          <mxGeometry y="10" relative="1" as="geometry">
            <mxPoint as="offset" />
          </mxGeometry>
        </mxCell>
        <mxCell id="WIyWlLk6GJQsqaUBKTNV-6" value="Lamp&lt;br&gt;plugged in?" style="rhombus;whiteSpace=wrap;html=1;shadow=0;fontFamily=Helvetica;fontSize=12;align=center;strokeWidth=1;spacing=6;spacingTop=-4;" parent="WIyWlLk6GJQsqaUBKTNV-1" vertex="1">
          <mxGeometry x="170" y="170" width="100" height="80" as="geometry" />
        </mxCell>
        <mxCell id="WIyWlLk6GJQsqaUBKTNV-7" value="Plug in lamp" style="rounded=1;whiteSpace=wrap;html=1;fontSize=12;glass=0;strokeWidth=1;shadow=0;" parent="WIyWlLk6GJQsqaUBKTNV-1" vertex="1">
          <mxGeometry x="320" y="190" width="120" height="40" as="geometry" />
        </mxCell>
        <mxCell id="WIyWlLk6GJQsqaUBKTNV-8" value="No" style="rounded=0;html=1;jettySize=auto;orthogonalLoop=1;fontSize=11;endArrow=block;endFill=0;endSize=8;strokeWidth=1;shadow=0;labelBackgroundColor=none;edgeStyle=orthogonalEdgeStyle;" parent="WIyWlLk6GJQsqaUBKTNV-1" source="WIyWlLk6GJQsqaUBKTNV-10" target="WIyWlLk6GJQsqaUBKTNV-11" edge="1">
          <mxGeometry x="0.3333" y="20" relative="1" as="geometry">
            <mxPoint as="offset" />
          </mxGeometry>
        </mxCell>
        <mxCell id="WIyWlLk6GJQsqaUBKTNV-9" value="Yes" style="edgeStyle=orthogonalEdgeStyle;rounded=0;html=1;jettySize=auto;orthogonalLoop=1;fontSize=11;endArrow=block;endFill=0;endSize=8;strokeWidth=1;shadow=0;labelBackgroundColor=none;" parent="WIyWlLk6GJQsqaUBKTNV-1" source="WIyWlLk6GJQsqaUBKTNV-10" target="WIyWlLk6GJQsqaUBKTNV-12" edge="1">
          <mxGeometry y="10" relative="1" as="geometry">
            <mxPoint as="offset" />
          </mxGeometry>
        </mxCell>
        <mxCell id="WIyWlLk6GJQsqaUBKTNV-10" value="Bulb&lt;br&gt;burned out?" style="rhombus;whiteSpace=wrap;html=1;shadow=0;fontFamily=Helvetica;fontSize=12;align=center;strokeWidth=1;spacing=6;spacingTop=-4;" parent="WIyWlLk6GJQsqaUBKTNV-1" vertex="1">
          <mxGeometry x="170" y="290" width="100" height="80" as="geometry" />
        </mxCell>
        <mxCell id="WIyWlLk6GJQsqaUBKTNV-11" value="Repair Lamp" style="rounded=1;whiteSpace=wrap;html=1;fontSize=12;glass=0;strokeWidth=1;shadow=0;" parent="WIyWlLk6GJQsqaUBKTNV-1" vertex="1">
          <mxGeometry x="160" y="430" width="120" height="40" as="geometry" />
        </mxCell>
        <mxCell id="WIyWlLk6GJQsqaUBKTNV-12" value="Replace Bulb" style="rounded=1;whiteSpace=wrap;html=1;fontSize=12;glass=0;strokeWidth=1;shadow=0;" parent="WIyWlLk6GJQsqaUBKTNV-1" vertex="1">
          <mxGeometry x="320" y="310" width="120" height="40" as="geometry" />
        </mxCell>
        <mxCell id="PfXoBTsluk0Nw_FTHRr1-0" value="开始" style="rounded=1;whiteSpace=wrap;html=1;fontSize=12;glass=0;strokeWidth=1;shadow=0;" parent="WIyWlLk6GJQsqaUBKTNV-1" vertex="1">
          <mxGeometry x="294" y="550" width="120" height="40" as="geometry" />
        </mxCell>
        <mxCell id="PfXoBTsluk0Nw_FTHRr1-1" value="" style="rounded=0;html=1;jettySize=auto;orthogonalLoop=1;fontSize=11;endArrow=block;endFill=0;endSize=8;strokeWidth=1;shadow=0;labelBackgroundColor=none;edgeStyle=orthogonalEdgeStyle;exitX=0.5;exitY=1;exitDx=0;exitDy=0;entryX=0.5;entryY=0;entryDx=0;entryDy=0;" parent="WIyWlLk6GJQsqaUBKTNV-1" source="PfXoBTsluk0Nw_FTHRr1-0" target="PfXoBTsluk0Nw_FTHRr1-2" edge="1">
          <mxGeometry relative="1" as="geometry">
            <mxPoint x="353.65999999999997" y="635" as="sourcePoint" />
            <mxPoint x="354" y="630" as="targetPoint" />
          </mxGeometry>
        </mxCell>
        <mxCell id="PfXoBTsluk0Nw_FTHRr1-2" value="访问TLB，进行虚实地址转换" style="rounded=1;whiteSpace=wrap;html=1;fontSize=12;glass=0;strokeWidth=1;shadow=0;" parent="WIyWlLk6GJQsqaUBKTNV-1" vertex="1">
          <mxGeometry x="256" y="630" width="196" height="40" as="geometry" />
        </mxCell>
        <mxCell id="PfXoBTsluk0Nw_FTHRr1-3" value="" style="rounded=0;html=1;jettySize=auto;orthogonalLoop=1;fontSize=11;endArrow=block;endFill=0;endSize=8;strokeWidth=1;shadow=0;labelBackgroundColor=none;edgeStyle=orthogonalEdgeStyle;exitX=0.5;exitY=1;exitDx=0;exitDy=0;entryX=0.5;entryY=0;entryDx=0;entryDy=0;" parent="WIyWlLk6GJQsqaUBKTNV-1" source="PfXoBTsluk0Nw_FTHRr1-2" target="PfXoBTsluk0Nw_FTHRr1-4" edge="1">
          <mxGeometry relative="1" as="geometry">
            <mxPoint x="364" y="710" as="sourcePoint" />
            <mxPoint x="354" y="710" as="targetPoint" />
            <Array as="points" />
          </mxGeometry>
        </mxCell>
        <mxCell id="PfXoBTsluk0Nw_FTHRr1-4" value="是否成功" style="rhombus;whiteSpace=wrap;html=1;shadow=0;fontFamily=Helvetica;fontSize=12;align=center;strokeWidth=1;spacing=6;spacingTop=-4;" parent="WIyWlLk6GJQsqaUBKTNV-1" vertex="1">
          <mxGeometry x="311" y="700" width="86" height="60" as="geometry" />
        </mxCell>
        <mxCell id="PfXoBTsluk0Nw_FTHRr1-5" value="" style="rounded=0;html=1;jettySize=auto;orthogonalLoop=1;fontSize=11;endArrow=block;endFill=0;endSize=8;strokeWidth=1;shadow=0;labelBackgroundColor=none;edgeStyle=orthogonalEdgeStyle;exitX=0;exitY=0.5;exitDx=0;exitDy=0;" parent="WIyWlLk6GJQsqaUBKTNV-1" source="PfXoBTsluk0Nw_FTHRr1-4" edge="1">
          <mxGeometry relative="1" as="geometry">
            <mxPoint x="220" y="740" as="sourcePoint" />
            <mxPoint x="270" y="790" as="targetPoint" />
            <Array as="points">
              <mxPoint x="270" y="730" />
            </Array>
          </mxGeometry>
        </mxCell>
        <mxCell id="PfXoBTsluk0Nw_FTHRr1-7" value="是" style="edgeLabel;html=1;align=center;verticalAlign=middle;resizable=0;points=[];" parent="PfXoBTsluk0Nw_FTHRr1-5" vertex="1" connectable="0">
          <mxGeometry x="-0.3602" relative="1" as="geometry">
            <mxPoint x="15" y="-10" as="offset" />
          </mxGeometry>
        </mxCell>
        <mxCell id="PfXoBTsluk0Nw_FTHRr1-6" value="" style="rounded=0;html=1;jettySize=auto;orthogonalLoop=1;fontSize=11;endArrow=block;endFill=0;endSize=8;strokeWidth=1;shadow=0;labelBackgroundColor=none;edgeStyle=orthogonalEdgeStyle;exitX=1;exitY=0.5;exitDx=0;exitDy=0;" parent="WIyWlLk6GJQsqaUBKTNV-1" source="PfXoBTsluk0Nw_FTHRr1-4" target="PfXoBTsluk0Nw_FTHRr1-12" edge="1">
          <mxGeometry relative="1" as="geometry">
            <mxPoint x="426" y="730" as="sourcePoint" />
            <mxPoint x="450" y="868" as="targetPoint" />
            <Array as="points">
              <mxPoint x="450" y="730" />
            </Array>
          </mxGeometry>
        </mxCell>
        <mxCell id="PfXoBTsluk0Nw_FTHRr1-8" value="否" style="edgeLabel;html=1;align=center;verticalAlign=middle;resizable=0;points=[];" parent="PfXoBTsluk0Nw_FTHRr1-6" vertex="1" connectable="0">
          <mxGeometry x="-0.726" y="2" relative="1" as="geometry">
            <mxPoint x="8" y="-8" as="offset" />
          </mxGeometry>
        </mxCell>
        <mxCell id="PfXoBTsluk0Nw_FTHRr1-9" value="访问主存" style="rounded=1;whiteSpace=wrap;html=1;fontSize=12;glass=0;strokeWidth=1;shadow=0;" parent="WIyWlLk6GJQsqaUBKTNV-1" vertex="1">
          <mxGeometry x="210" y="790" width="120" height="40" as="geometry" />
        </mxCell>
        <mxCell id="PfXoBTsluk0Nw_FTHRr1-10" value="成功，得到访存数据" style="rounded=1;whiteSpace=wrap;html=1;fontSize=12;glass=0;strokeWidth=1;shadow=0;" parent="WIyWlLk6GJQsqaUBKTNV-1" vertex="1">
          <mxGeometry x="210" y="870" width="120" height="40" as="geometry" />
        </mxCell>
        <mxCell id="PfXoBTsluk0Nw_FTHRr1-11" value="" style="rounded=0;html=1;jettySize=auto;orthogonalLoop=1;fontSize=11;endArrow=block;endFill=0;endSize=8;strokeWidth=1;shadow=0;labelBackgroundColor=none;edgeStyle=orthogonalEdgeStyle;exitX=0.5;exitY=1;exitDx=0;exitDy=0;entryX=0.5;entryY=0;entryDx=0;entryDy=0;" parent="WIyWlLk6GJQsqaUBKTNV-1" source="PfXoBTsluk0Nw_FTHRr1-9" target="PfXoBTsluk0Nw_FTHRr1-10" edge="1">
          <mxGeometry relative="1" as="geometry">
            <mxPoint x="340" y="830" as="sourcePoint" />
            <mxPoint x="340" y="870" as="targetPoint" />
            <Array as="points" />
          </mxGeometry>
        </mxCell>
        <mxCell id="PfXoBTsluk0Nw_FTHRr1-12" value="失败，记录异常信息" style="rounded=1;whiteSpace=wrap;html=1;fontSize=12;glass=0;strokeWidth=1;shadow=0;" parent="WIyWlLk6GJQsqaUBKTNV-1" vertex="1">
          <mxGeometry x="380" y="870" width="120" height="40" as="geometry" />
        </mxCell>
        <mxCell id="PfXoBTsluk0Nw_FTHRr1-13" value="结束" style="rounded=1;whiteSpace=wrap;html=1;fontSize=12;glass=0;strokeWidth=1;shadow=0;" parent="WIyWlLk6GJQsqaUBKTNV-1" vertex="1">
          <mxGeometry x="294" y="950" width="120" height="40" as="geometry" />
        </mxCell>
        <mxCell id="PfXoBTsluk0Nw_FTHRr1-14" value="" style="rounded=0;html=1;jettySize=auto;orthogonalLoop=1;fontSize=11;endArrow=block;endFill=0;endSize=8;strokeWidth=1;shadow=0;labelBackgroundColor=none;edgeStyle=orthogonalEdgeStyle;exitX=0.5;exitY=1;exitDx=0;exitDy=0;entryX=0.303;entryY=0.043;entryDx=0;entryDy=0;entryPerimeter=0;" parent="WIyWlLk6GJQsqaUBKTNV-1" source="PfXoBTsluk0Nw_FTHRr1-10" target="PfXoBTsluk0Nw_FTHRr1-13" edge="1">
          <mxGeometry relative="1" as="geometry">
            <mxPoint x="269.31000000000023" y="920" as="sourcePoint" />
            <mxPoint x="330" y="940" as="targetPoint" />
            <Array as="points" />
          </mxGeometry>
        </mxCell>
        <mxCell id="PfXoBTsluk0Nw_FTHRr1-15" value="" style="rounded=0;html=1;jettySize=auto;orthogonalLoop=1;fontSize=11;endArrow=block;endFill=0;endSize=8;strokeWidth=1;shadow=0;labelBackgroundColor=none;edgeStyle=orthogonalEdgeStyle;exitX=0.558;exitY=1.06;exitDx=0;exitDy=0;exitPerimeter=0;" parent="WIyWlLk6GJQsqaUBKTNV-1" source="PfXoBTsluk0Nw_FTHRr1-12" edge="1">
          <mxGeometry relative="1" as="geometry">
            <mxPoint x="452.0000000000002" y="920" as="sourcePoint" />
            <mxPoint x="380" y="950" as="targetPoint" />
            <Array as="points">
              <mxPoint x="447" y="930" />
              <mxPoint x="380" y="930" />
              <mxPoint x="380" y="950" />
            </Array>
          </mxGeometry>
        </mxCell>
        <mxCell id="PfXoBTsluk0Nw_FTHRr1-16" value="开始" style="rounded=1;whiteSpace=wrap;html=1;fontSize=12;glass=0;strokeWidth=1;shadow=0;" parent="WIyWlLk6GJQsqaUBKTNV-1" vertex="1">
          <mxGeometry x="309" y="1191" width="120" height="40" as="geometry" />
        </mxCell>
        <mxCell id="PfXoBTsluk0Nw_FTHRr1-19" value="" style="rounded=0;html=1;jettySize=auto;orthogonalLoop=1;fontSize=11;endArrow=block;endFill=0;endSize=8;strokeWidth=1;shadow=0;labelBackgroundColor=none;edgeStyle=orthogonalEdgeStyle;exitX=0.5;exitY=1;exitDx=0;exitDy=0;entryX=0.5;entryY=0;entryDx=0;entryDy=0;" parent="WIyWlLk6GJQsqaUBKTNV-1" source="PfXoBTsluk0Nw_FTHRr1-16" target="PfXoBTsluk0Nw_FTHRr1-20" edge="1">
          <mxGeometry relative="1" as="geometry">
            <mxPoint x="369" y="1311" as="sourcePoint" />
            <mxPoint x="369" y="1351" as="targetPoint" />
            <Array as="points" />
          </mxGeometry>
        </mxCell>
        <mxCell id="PfXoBTsluk0Nw_FTHRr1-20" value="是否命中" style="rhombus;whiteSpace=wrap;html=1;shadow=0;fontFamily=Helvetica;fontSize=12;align=center;strokeWidth=1;spacing=6;spacingTop=-4;" parent="WIyWlLk6GJQsqaUBKTNV-1" vertex="1">
          <mxGeometry x="326" y="1265" width="86" height="60" as="geometry" />
        </mxCell>
        <mxCell id="PfXoBTsluk0Nw_FTHRr1-21" value="" style="rounded=0;html=1;jettySize=auto;orthogonalLoop=1;fontSize=11;endArrow=block;endFill=0;endSize=8;strokeWidth=1;shadow=0;labelBackgroundColor=none;edgeStyle=orthogonalEdgeStyle;exitX=0;exitY=0.5;exitDx=0;exitDy=0;entryX=0.5;entryY=0;entryDx=0;entryDy=0;" parent="WIyWlLk6GJQsqaUBKTNV-1" source="PfXoBTsluk0Nw_FTHRr1-20" target="PfXoBTsluk0Nw_FTHRr1-25" edge="1">
          <mxGeometry relative="1" as="geometry">
            <mxPoint x="235" y="1381" as="sourcePoint" />
            <mxPoint x="312" y="1408" as="targetPoint" />
            <Array as="points">
              <mxPoint x="285" y="1295" />
            </Array>
          </mxGeometry>
        </mxCell>
        <mxCell id="PfXoBTsluk0Nw_FTHRr1-22" value="否" style="edgeLabel;html=1;align=center;verticalAlign=middle;resizable=0;points=[];" parent="PfXoBTsluk0Nw_FTHRr1-21" vertex="1" connectable="0">
          <mxGeometry x="-0.3602" relative="1" as="geometry">
            <mxPoint x="11" y="-12" as="offset" />
          </mxGeometry>
        </mxCell>
        <mxCell id="PfXoBTsluk0Nw_FTHRr1-23" value="" style="rounded=0;html=1;jettySize=auto;orthogonalLoop=1;fontSize=11;endArrow=block;endFill=0;endSize=8;strokeWidth=1;shadow=0;labelBackgroundColor=none;edgeStyle=orthogonalEdgeStyle;exitX=1;exitY=0.5;exitDx=0;exitDy=0;entryX=0.5;entryY=0;entryDx=0;entryDy=0;" parent="WIyWlLk6GJQsqaUBKTNV-1" source="PfXoBTsluk0Nw_FTHRr1-20" target="PfXoBTsluk0Nw_FTHRr1-32" edge="1">
          <mxGeometry relative="1" as="geometry">
            <mxPoint x="441" y="1371" as="sourcePoint" />
            <mxPoint x="465.0344827586207" y="1388" as="targetPoint" />
            <Array as="points">
              <mxPoint x="465" y="1295" />
            </Array>
          </mxGeometry>
        </mxCell>
        <mxCell id="PfXoBTsluk0Nw_FTHRr1-24" value="是" style="edgeLabel;html=1;align=center;verticalAlign=middle;resizable=0;points=[];" parent="PfXoBTsluk0Nw_FTHRr1-23" vertex="1" connectable="0">
          <mxGeometry x="-0.726" y="2" relative="1" as="geometry">
            <mxPoint x="-3" y="-9" as="offset" />
          </mxGeometry>
        </mxCell>
        <mxCell id="PfXoBTsluk0Nw_FTHRr1-25" value="访问PTW" style="rounded=1;whiteSpace=wrap;html=1;fontSize=12;glass=0;strokeWidth=1;shadow=0;" parent="WIyWlLk6GJQsqaUBKTNV-1" vertex="1">
          <mxGeometry x="225" y="1336" width="120" height="40" as="geometry" />
        </mxCell>
        <mxCell id="PfXoBTsluk0Nw_FTHRr1-26" value="失败，得到异常信息" style="rounded=1;whiteSpace=wrap;html=1;fontSize=12;glass=0;strokeWidth=1;shadow=0;" parent="WIyWlLk6GJQsqaUBKTNV-1" vertex="1">
          <mxGeometry x="225" y="1511" width="120" height="40" as="geometry" />
        </mxCell>
        <mxCell id="PfXoBTsluk0Nw_FTHRr1-27" value="" style="rounded=0;html=1;jettySize=auto;orthogonalLoop=1;fontSize=11;endArrow=block;endFill=0;endSize=8;strokeWidth=1;shadow=0;labelBackgroundColor=none;edgeStyle=orthogonalEdgeStyle;exitX=0.5;exitY=1;exitDx=0;exitDy=0;" parent="WIyWlLk6GJQsqaUBKTNV-1" source="PfXoBTsluk0Nw_FTHRr1-25" edge="1">
          <mxGeometry relative="1" as="geometry">
            <mxPoint x="355" y="1471" as="sourcePoint" />
            <mxPoint x="285" y="1414" as="targetPoint" />
            <Array as="points" />
          </mxGeometry>
        </mxCell>
        <mxCell id="PfXoBTsluk0Nw_FTHRr1-29" value="结束" style="rounded=1;whiteSpace=wrap;html=1;fontSize=12;glass=0;strokeWidth=1;shadow=0;" parent="WIyWlLk6GJQsqaUBKTNV-1" vertex="1">
          <mxGeometry x="309" y="1591" width="120" height="40" as="geometry" />
        </mxCell>
        <mxCell id="PfXoBTsluk0Nw_FTHRr1-30" value="" style="rounded=0;html=1;jettySize=auto;orthogonalLoop=1;fontSize=11;endArrow=block;endFill=0;endSize=8;strokeWidth=1;shadow=0;labelBackgroundColor=none;edgeStyle=orthogonalEdgeStyle;exitX=0.5;exitY=1;exitDx=0;exitDy=0;entryX=0.303;entryY=0.043;entryDx=0;entryDy=0;entryPerimeter=0;" parent="WIyWlLk6GJQsqaUBKTNV-1" source="PfXoBTsluk0Nw_FTHRr1-26" target="PfXoBTsluk0Nw_FTHRr1-29" edge="1">
          <mxGeometry relative="1" as="geometry">
            <mxPoint x="284.31000000000023" y="1561" as="sourcePoint" />
            <mxPoint x="345" y="1581" as="targetPoint" />
            <Array as="points" />
          </mxGeometry>
        </mxCell>
        <mxCell id="PfXoBTsluk0Nw_FTHRr1-31" value="" style="rounded=0;html=1;jettySize=auto;orthogonalLoop=1;fontSize=11;endArrow=block;endFill=0;endSize=8;strokeWidth=1;shadow=0;labelBackgroundColor=none;edgeStyle=orthogonalEdgeStyle;" parent="WIyWlLk6GJQsqaUBKTNV-1" source="PfXoBTsluk0Nw_FTHRr1-39" edge="1">
          <mxGeometry relative="1" as="geometry">
            <mxPoint x="553" y="1539" as="sourcePoint" />
            <mxPoint x="395.0000000000002" y="1591" as="targetPoint" />
            <Array as="points">
              <mxPoint x="553" y="1571" />
              <mxPoint x="395" y="1571" />
            </Array>
          </mxGeometry>
        </mxCell>
        <mxCell id="PfXoBTsluk0Nw_FTHRr1-32" value="权限检查" style="rhombus;whiteSpace=wrap;html=1;shadow=0;fontFamily=Helvetica;fontSize=12;align=center;strokeWidth=1;spacing=6;spacingTop=-4;" parent="WIyWlLk6GJQsqaUBKTNV-1" vertex="1">
          <mxGeometry x="422" y="1340" width="86" height="60" as="geometry" />
        </mxCell>
        <mxCell id="PfXoBTsluk0Nw_FTHRr1-33" value="权限检查" style="rhombus;whiteSpace=wrap;html=1;shadow=0;fontFamily=Helvetica;fontSize=12;align=center;strokeWidth=1;spacing=6;spacingTop=-4;" parent="WIyWlLk6GJQsqaUBKTNV-1" vertex="1">
          <mxGeometry x="242" y="1414" width="86" height="60" as="geometry" />
        </mxCell>
        <mxCell id="PfXoBTsluk0Nw_FTHRr1-34" value="" style="rounded=0;html=1;jettySize=auto;orthogonalLoop=1;fontSize=11;endArrow=block;endFill=0;endSize=8;strokeWidth=1;shadow=0;labelBackgroundColor=none;edgeStyle=orthogonalEdgeStyle;exitX=0.5;exitY=1;exitDx=0;exitDy=0;entryX=0.5;entryY=0;entryDx=0;entryDy=0;" parent="WIyWlLk6GJQsqaUBKTNV-1" source="PfXoBTsluk0Nw_FTHRr1-33" target="PfXoBTsluk0Nw_FTHRr1-26" edge="1">
          <mxGeometry relative="1" as="geometry">
            <mxPoint x="357.0000000000002" y="1468" as="sourcePoint" />
            <mxPoint x="357.0000000000002" y="1506" as="targetPoint" />
            <Array as="points" />
          </mxGeometry>
        </mxCell>
        <mxCell id="PfXoBTsluk0Nw_FTHRr1-35" value="失败" style="edgeLabel;html=1;align=center;verticalAlign=middle;resizable=0;points=[];" parent="WIyWlLk6GJQsqaUBKTNV-1" vertex="1" connectable="0">
          <mxGeometry x="299.0031127326467" y="1291.0020596694171" as="geometry">
            <mxPoint x="-32" y="195" as="offset" />
          </mxGeometry>
        </mxCell>
        <mxCell id="PfXoBTsluk0Nw_FTHRr1-36" value="" style="rounded=0;html=1;jettySize=auto;orthogonalLoop=1;fontSize=11;endArrow=block;endFill=0;endSize=8;strokeWidth=1;shadow=0;labelBackgroundColor=none;edgeStyle=orthogonalEdgeStyle;exitX=0;exitY=0.5;exitDx=0;exitDy=0;entryX=0.442;entryY=1;entryDx=0;entryDy=0;entryPerimeter=0;" parent="WIyWlLk6GJQsqaUBKTNV-1" source="PfXoBTsluk0Nw_FTHRr1-33" target="PfXoBTsluk0Nw_FTHRr1-45" edge="1">
          <mxGeometry relative="1" as="geometry">
            <mxPoint x="191.00000000000023" y="1442" as="sourcePoint" />
            <mxPoint x="128" y="1390" as="targetPoint" />
            <Array as="points">
              <mxPoint x="128" y="1444" />
            </Array>
          </mxGeometry>
        </mxCell>
        <mxCell id="PfXoBTsluk0Nw_FTHRr1-37" value="成功" style="edgeLabel;html=1;align=center;verticalAlign=middle;resizable=0;points=[];" parent="PfXoBTsluk0Nw_FTHRr1-36" vertex="1" connectable="0">
          <mxGeometry x="-0.1677" relative="1" as="geometry">
            <mxPoint x="51" y="-12" as="offset" />
          </mxGeometry>
        </mxCell>
        <mxCell id="PfXoBTsluk0Nw_FTHRr1-38" value="" style="rounded=0;html=1;jettySize=auto;orthogonalLoop=1;fontSize=11;endArrow=block;endFill=0;endSize=8;strokeWidth=1;shadow=0;labelBackgroundColor=none;edgeStyle=orthogonalEdgeStyle;exitX=0.5;exitY=1;exitDx=0;exitDy=0;" parent="WIyWlLk6GJQsqaUBKTNV-1" source="PfXoBTsluk0Nw_FTHRr1-32" edge="1">
          <mxGeometry relative="1" as="geometry">
            <mxPoint x="464.6600000000002" y="1409" as="sourcePoint" />
            <mxPoint x="324" y="1510" as="targetPoint" />
            <Array as="points" />
          </mxGeometry>
        </mxCell>
        <mxCell id="PfXoBTsluk0Nw_FTHRr1-43" value="失败" style="edgeLabel;html=1;align=center;verticalAlign=middle;resizable=0;points=[];" parent="PfXoBTsluk0Nw_FTHRr1-38" vertex="1" connectable="0">
          <mxGeometry x="-0.844" y="1" relative="1" as="geometry">
            <mxPoint x="-18" y="-2" as="offset" />
          </mxGeometry>
        </mxCell>
        <mxCell id="PfXoBTsluk0Nw_FTHRr1-39" value="成功，得到实地址" style="rounded=1;whiteSpace=wrap;html=1;fontSize=12;glass=0;strokeWidth=1;shadow=0;" parent="WIyWlLk6GJQsqaUBKTNV-1" vertex="1">
          <mxGeometry x="495" y="1506" width="120" height="40" as="geometry" />
        </mxCell>
        <mxCell id="PfXoBTsluk0Nw_FTHRr1-42" value="" style="rounded=0;html=1;jettySize=auto;orthogonalLoop=1;fontSize=11;endArrow=block;endFill=0;endSize=8;strokeWidth=1;shadow=0;labelBackgroundColor=none;edgeStyle=orthogonalEdgeStyle;exitX=1;exitY=0.5;exitDx=0;exitDy=0;" parent="WIyWlLk6GJQsqaUBKTNV-1" source="PfXoBTsluk0Nw_FTHRr1-32" edge="1">
          <mxGeometry relative="1" as="geometry">
            <mxPoint x="581" y="1366" as="sourcePoint" />
            <mxPoint x="552" y="1508" as="targetPoint" />
            <Array as="points" />
          </mxGeometry>
        </mxCell>
        <mxCell id="PfXoBTsluk0Nw_FTHRr1-44" value="成功" style="edgeLabel;html=1;align=center;verticalAlign=middle;resizable=0;points=[];" parent="PfXoBTsluk0Nw_FTHRr1-42" vertex="1" connectable="0">
          <mxGeometry x="-0.6097" y="-1" relative="1" as="geometry">
            <mxPoint x="-9" y="-12" as="offset" />
          </mxGeometry>
        </mxCell>
        <mxCell id="PfXoBTsluk0Nw_FTHRr1-45" value="将从PTW得到的页表项回填到TLB中" style="rounded=1;whiteSpace=wrap;html=1;fontSize=12;glass=0;strokeWidth=1;shadow=0;" parent="WIyWlLk6GJQsqaUBKTNV-1" vertex="1">
          <mxGeometry x="75" y="1336" width="120" height="40" as="geometry" />
        </mxCell>
        <mxCell id="PfXoBTsluk0Nw_FTHRr1-46" value="" style="rounded=0;html=1;jettySize=auto;orthogonalLoop=1;fontSize=11;endArrow=block;endFill=0;endSize=8;strokeWidth=1;shadow=0;labelBackgroundColor=none;edgeStyle=orthogonalEdgeStyle;exitX=0.433;exitY=-0.021;exitDx=0;exitDy=0;exitPerimeter=0;" parent="WIyWlLk6GJQsqaUBKTNV-1" source="PfXoBTsluk0Nw_FTHRr1-45" edge="1">
          <mxGeometry relative="1" as="geometry">
            <mxPoint x="214.99999999999977" y="1279" as="sourcePoint" />
            <mxPoint x="368" y="1241" as="targetPoint" />
            <Array as="points">
              <mxPoint x="127" y="1241" />
              <mxPoint x="150" y="1241" />
            </Array>
          </mxGeometry>
        </mxCell>
        <mxCell id="HdpUU3oz74thlldm0Am4-0" value="开始" style="rounded=1;whiteSpace=wrap;html=1;fontSize=12;glass=0;strokeWidth=1;shadow=0;" parent="WIyWlLk6GJQsqaUBKTNV-1" vertex="1">
          <mxGeometry x="25" y="1691" width="120" height="40" as="geometry" />
        </mxCell>
        <mxCell id="HdpUU3oz74thlldm0Am4-1" value="访问一级页表" style="rounded=1;whiteSpace=wrap;html=1;fontSize=12;glass=0;strokeWidth=1;shadow=0;" parent="WIyWlLk6GJQsqaUBKTNV-1" vertex="1">
          <mxGeometry x="25" y="1756" width="120" height="40" as="geometry" />
        </mxCell>
        <mxCell id="HdpUU3oz74thlldm0Am4-2" value="是否为叶节点" style="rhombus;whiteSpace=wrap;html=1;shadow=0;fontFamily=Helvetica;fontSize=12;align=center;strokeWidth=1;spacing=6;spacingTop=-4;" parent="WIyWlLk6GJQsqaUBKTNV-1" vertex="1">
          <mxGeometry x="180" y="1821" width="86" height="60" as="geometry" />
        </mxCell>
        <mxCell id="HdpUU3oz74thlldm0Am4-3" value="权限检查" style="rhombus;whiteSpace=wrap;html=1;shadow=0;fontFamily=Helvetica;fontSize=12;align=center;strokeWidth=1;spacing=6;spacingTop=-4;" parent="WIyWlLk6GJQsqaUBKTNV-1" vertex="1">
          <mxGeometry x="40" y="1821" width="86" height="60" as="geometry" />
        </mxCell>
        <mxCell id="HdpUU3oz74thlldm0Am4-4" value="失败，得到异常信息" style="rounded=1;whiteSpace=wrap;html=1;fontSize=12;glass=0;strokeWidth=1;shadow=0;" parent="WIyWlLk6GJQsqaUBKTNV-1" vertex="1">
          <mxGeometry x="23" y="2206" width="120" height="40" as="geometry" />
        </mxCell>
        <mxCell id="HdpUU3oz74thlldm0Am4-7" value="访问二级页表" style="rounded=1;whiteSpace=wrap;html=1;fontSize=12;glass=0;strokeWidth=1;shadow=0;" parent="WIyWlLk6GJQsqaUBKTNV-1" vertex="1">
          <mxGeometry x="163" y="1920" width="120" height="40" as="geometry" />
        </mxCell>
        <mxCell id="HdpUU3oz74thlldm0Am4-8" value="是否为叶节点" style="rhombus;whiteSpace=wrap;html=1;shadow=0;fontFamily=Helvetica;fontSize=12;align=center;strokeWidth=1;spacing=6;spacingTop=-4;" parent="WIyWlLk6GJQsqaUBKTNV-1" vertex="1">
          <mxGeometry x="316" y="1995" width="86" height="60" as="geometry" />
        </mxCell>
        <mxCell id="HdpUU3oz74thlldm0Am4-9" value="权限检查" style="rhombus;whiteSpace=wrap;html=1;shadow=0;fontFamily=Helvetica;fontSize=12;align=center;strokeWidth=1;spacing=6;spacingTop=-4;" parent="WIyWlLk6GJQsqaUBKTNV-1" vertex="1">
          <mxGeometry x="180" y="1995" width="86" height="60" as="geometry" />
        </mxCell>
        <mxCell id="HdpUU3oz74thlldm0Am4-11" value="访问三级页表" style="rounded=1;whiteSpace=wrap;html=1;fontSize=12;glass=0;strokeWidth=1;shadow=0;" parent="WIyWlLk6GJQsqaUBKTNV-1" vertex="1">
          <mxGeometry x="299" y="2102" width="120" height="40" as="geometry" />
        </mxCell>
        <mxCell id="HdpUU3oz74thlldm0Am4-12" value="是否为叶节点" style="rhombus;whiteSpace=wrap;html=1;shadow=0;fontFamily=Helvetica;fontSize=12;align=center;strokeWidth=1;spacing=6;spacingTop=-4;" parent="WIyWlLk6GJQsqaUBKTNV-1" vertex="1">
          <mxGeometry x="469" y="2196" width="86" height="60" as="geometry" />
        </mxCell>
        <mxCell id="HdpUU3oz74thlldm0Am4-13" value="权限检查" style="rhombus;whiteSpace=wrap;html=1;shadow=0;fontFamily=Helvetica;fontSize=12;align=center;strokeWidth=1;spacing=6;spacingTop=-4;" parent="WIyWlLk6GJQsqaUBKTNV-1" vertex="1">
          <mxGeometry x="316" y="2196" width="86" height="60" as="geometry" />
        </mxCell>
        <mxCell id="HdpUU3oz74thlldm0Am4-14" value="成功，得到实地址" style="rounded=1;whiteSpace=wrap;html=1;fontSize=12;glass=0;strokeWidth=1;shadow=0;" parent="WIyWlLk6GJQsqaUBKTNV-1" vertex="1">
          <mxGeometry x="628" y="2206" width="120" height="40" as="geometry" />
        </mxCell>
        <mxCell id="HdpUU3oz74thlldm0Am4-17" value="" style="rounded=0;html=1;jettySize=auto;orthogonalLoop=1;fontSize=11;endArrow=block;endFill=0;endSize=8;strokeWidth=1;shadow=0;labelBackgroundColor=none;edgeStyle=orthogonalEdgeStyle;exitX=0.5;exitY=1;exitDx=0;exitDy=0;entryX=0.5;entryY=0;entryDx=0;entryDy=0;" parent="WIyWlLk6GJQsqaUBKTNV-1" source="HdpUU3oz74thlldm0Am4-1" target="HdpUU3oz74thlldm0Am4-3" edge="1">
          <mxGeometry relative="1" as="geometry">
            <mxPoint x="160" y="1799" as="sourcePoint" />
            <mxPoint x="160" y="1833" as="targetPoint" />
            <Array as="points" />
          </mxGeometry>
        </mxCell>
        <mxCell id="HdpUU3oz74thlldm0Am4-18" value="" style="rounded=0;html=1;jettySize=auto;orthogonalLoop=1;fontSize=11;endArrow=block;endFill=0;endSize=8;strokeWidth=1;shadow=0;labelBackgroundColor=none;edgeStyle=orthogonalEdgeStyle;exitX=0.5;exitY=1;exitDx=0;exitDy=0;entryX=0.5;entryY=0;entryDx=0;entryDy=0;" parent="WIyWlLk6GJQsqaUBKTNV-1" source="HdpUU3oz74thlldm0Am4-0" target="HdpUU3oz74thlldm0Am4-1" edge="1">
          <mxGeometry relative="1" as="geometry">
            <mxPoint x="263.16999999999996" y="1715" as="sourcePoint" />
            <mxPoint x="85" y="1760" as="targetPoint" />
            <Array as="points" />
          </mxGeometry>
        </mxCell>
        <mxCell id="HdpUU3oz74thlldm0Am4-19" value="" style="rounded=0;html=1;jettySize=auto;orthogonalLoop=1;fontSize=11;endArrow=block;endFill=0;endSize=8;strokeWidth=1;shadow=0;labelBackgroundColor=none;edgeStyle=orthogonalEdgeStyle;exitX=0.5;exitY=1;exitDx=0;exitDy=0;" parent="WIyWlLk6GJQsqaUBKTNV-1" source="HdpUU3oz74thlldm0Am4-3" target="HdpUU3oz74thlldm0Am4-4" edge="1">
          <mxGeometry relative="1" as="geometry">
            <mxPoint x="110" y="1950" as="sourcePoint" />
            <mxPoint x="110" y="1975" as="targetPoint" />
            <Array as="points" />
          </mxGeometry>
        </mxCell>
        <mxCell id="HdpUU3oz74thlldm0Am4-33" value="失败" style="edgeLabel;html=1;align=center;verticalAlign=middle;resizable=0;points=[];" parent="HdpUU3oz74thlldm0Am4-19" vertex="1" connectable="0">
          <mxGeometry x="-0.5621" y="1" relative="1" as="geometry">
            <mxPoint x="-20" y="-45" as="offset" />
          </mxGeometry>
        </mxCell>
        <mxCell id="HdpUU3oz74thlldm0Am4-20" value="" style="rounded=0;html=1;jettySize=auto;orthogonalLoop=1;fontSize=11;endArrow=block;endFill=0;endSize=8;strokeWidth=1;shadow=0;labelBackgroundColor=none;edgeStyle=orthogonalEdgeStyle;entryX=0;entryY=0.5;entryDx=0;entryDy=0;exitX=1;exitY=0.5;exitDx=0;exitDy=0;" parent="WIyWlLk6GJQsqaUBKTNV-1" source="HdpUU3oz74thlldm0Am4-3" target="HdpUU3oz74thlldm0Am4-2" edge="1">
          <mxGeometry relative="1" as="geometry">
            <mxPoint x="190" y="1746" as="sourcePoint" />
            <mxPoint x="105" y="1776" as="targetPoint" />
            <Array as="points" />
          </mxGeometry>
        </mxCell>
        <mxCell id="HdpUU3oz74thlldm0Am4-21" value="" style="rounded=0;html=1;jettySize=auto;orthogonalLoop=1;fontSize=11;endArrow=block;endFill=0;endSize=8;strokeWidth=1;shadow=0;labelBackgroundColor=none;edgeStyle=orthogonalEdgeStyle;exitX=0.5;exitY=1;exitDx=0;exitDy=0;entryX=0.5;entryY=0;entryDx=0;entryDy=0;" parent="WIyWlLk6GJQsqaUBKTNV-1" source="HdpUU3oz74thlldm0Am4-2" target="HdpUU3oz74thlldm0Am4-7" edge="1">
          <mxGeometry relative="1" as="geometry">
            <mxPoint x="286" y="1801" as="sourcePoint" />
            <mxPoint x="223" y="1929" as="targetPoint" />
            <Array as="points" />
          </mxGeometry>
        </mxCell>
        <mxCell id="HdpUU3oz74thlldm0Am4-22" value="" style="rounded=0;html=1;jettySize=auto;orthogonalLoop=1;fontSize=11;endArrow=block;endFill=0;endSize=8;strokeWidth=1;shadow=0;labelBackgroundColor=none;edgeStyle=orthogonalEdgeStyle;exitX=0.5;exitY=1;exitDx=0;exitDy=0;entryX=0.5;entryY=0;entryDx=0;entryDy=0;" parent="WIyWlLk6GJQsqaUBKTNV-1" source="HdpUU3oz74thlldm0Am4-7" target="HdpUU3oz74thlldm0Am4-9" edge="1">
          <mxGeometry relative="1" as="geometry">
            <mxPoint x="311" y="1951" as="sourcePoint" />
            <mxPoint x="311" y="1990" as="targetPoint" />
            <Array as="points" />
          </mxGeometry>
        </mxCell>
        <mxCell id="HdpUU3oz74thlldm0Am4-23" value="" style="rounded=0;html=1;jettySize=auto;orthogonalLoop=1;fontSize=11;endArrow=block;endFill=0;endSize=8;strokeWidth=1;shadow=0;labelBackgroundColor=none;edgeStyle=orthogonalEdgeStyle;entryX=0;entryY=0.5;entryDx=0;entryDy=0;" parent="WIyWlLk6GJQsqaUBKTNV-1" source="HdpUU3oz74thlldm0Am4-9" target="HdpUU3oz74thlldm0Am4-8" edge="1">
          <mxGeometry relative="1" as="geometry">
            <mxPoint x="334.17" y="1924" as="sourcePoint" />
            <mxPoint x="296" y="2025" as="targetPoint" />
            <Array as="points" />
          </mxGeometry>
        </mxCell>
        <mxCell id="HdpUU3oz74thlldm0Am4-24" value="" style="rounded=0;html=1;jettySize=auto;orthogonalLoop=1;fontSize=11;endArrow=block;endFill=0;endSize=8;strokeWidth=1;shadow=0;labelBackgroundColor=none;edgeStyle=orthogonalEdgeStyle;exitX=0;exitY=0.5;exitDx=0;exitDy=0;" parent="WIyWlLk6GJQsqaUBKTNV-1" source="HdpUU3oz74thlldm0Am4-9" edge="1">
          <mxGeometry relative="1" as="geometry">
            <mxPoint x="140" y="2005.5" as="sourcePoint" />
            <mxPoint x="83" y="2025" as="targetPoint" />
            <Array as="points" />
          </mxGeometry>
        </mxCell>
        <mxCell id="HdpUU3oz74thlldm0Am4-25" value="" style="rounded=0;html=1;jettySize=auto;orthogonalLoop=1;fontSize=11;endArrow=block;endFill=0;endSize=8;strokeWidth=1;shadow=0;labelBackgroundColor=none;edgeStyle=orthogonalEdgeStyle;exitX=0.5;exitY=1;exitDx=0;exitDy=0;entryX=0.5;entryY=0;entryDx=0;entryDy=0;" parent="WIyWlLk6GJQsqaUBKTNV-1" source="HdpUU3oz74thlldm0Am4-8" target="HdpUU3oz74thlldm0Am4-11" edge="1">
          <mxGeometry relative="1" as="geometry">
            <mxPoint x="385" y="2068" as="sourcePoint" />
            <mxPoint x="385" y="2103" as="targetPoint" />
            <Array as="points" />
          </mxGeometry>
        </mxCell>
        <mxCell id="HdpUU3oz74thlldm0Am4-26" value="" style="rounded=0;html=1;jettySize=auto;orthogonalLoop=1;fontSize=11;endArrow=block;endFill=0;endSize=8;strokeWidth=1;shadow=0;labelBackgroundColor=none;edgeStyle=orthogonalEdgeStyle;exitX=0.5;exitY=1;exitDx=0;exitDy=0;entryX=0.5;entryY=0;entryDx=0;entryDy=0;" parent="WIyWlLk6GJQsqaUBKTNV-1" source="HdpUU3oz74thlldm0Am4-11" target="HdpUU3oz74thlldm0Am4-13" edge="1">
          <mxGeometry relative="1" as="geometry">
            <mxPoint x="414" y="2153" as="sourcePoint" />
            <mxPoint x="414" y="2200" as="targetPoint" />
            <Array as="points" />
          </mxGeometry>
        </mxCell>
        <mxCell id="HdpUU3oz74thlldm0Am4-27" value="" style="rounded=0;html=1;jettySize=auto;orthogonalLoop=1;fontSize=11;endArrow=block;endFill=0;endSize=8;strokeWidth=1;shadow=0;labelBackgroundColor=none;edgeStyle=orthogonalEdgeStyle;entryX=0;entryY=0.5;entryDx=0;entryDy=0;exitX=1;exitY=0.5;exitDx=0;exitDy=0;" parent="WIyWlLk6GJQsqaUBKTNV-1" source="HdpUU3oz74thlldm0Am4-13" target="HdpUU3oz74thlldm0Am4-12" edge="1">
          <mxGeometry relative="1" as="geometry">
            <mxPoint x="418.9999999999998" y="2269" as="sourcePoint" />
            <mxPoint x="473" y="2269" as="targetPoint" />
            <Array as="points" />
          </mxGeometry>
        </mxCell>
        <mxCell id="HdpUU3oz74thlldm0Am4-28" value="" style="rounded=0;html=1;jettySize=auto;orthogonalLoop=1;fontSize=11;endArrow=block;endFill=0;endSize=8;strokeWidth=1;shadow=0;labelBackgroundColor=none;edgeStyle=orthogonalEdgeStyle;exitX=0;exitY=0.5;exitDx=0;exitDy=0;entryX=1;entryY=0.5;entryDx=0;entryDy=0;" parent="WIyWlLk6GJQsqaUBKTNV-1" source="HdpUU3oz74thlldm0Am4-13" target="HdpUU3oz74thlldm0Am4-4" edge="1">
          <mxGeometry relative="1" as="geometry">
            <mxPoint x="277" y="2225.58" as="sourcePoint" />
            <mxPoint x="180" y="2225.58" as="targetPoint" />
            <Array as="points" />
          </mxGeometry>
        </mxCell>
        <mxCell id="HdpUU3oz74thlldm0Am4-29" value="" style="rounded=0;html=1;jettySize=auto;orthogonalLoop=1;fontSize=11;endArrow=block;endFill=0;endSize=8;strokeWidth=1;shadow=0;labelBackgroundColor=none;edgeStyle=orthogonalEdgeStyle;exitX=1;exitY=0.5;exitDx=0;exitDy=0;entryX=0;entryY=0.5;entryDx=0;entryDy=0;" parent="WIyWlLk6GJQsqaUBKTNV-1" source="HdpUU3oz74thlldm0Am4-12" target="HdpUU3oz74thlldm0Am4-14" edge="1">
          <mxGeometry relative="1" as="geometry">
            <mxPoint x="566.9999999999995" y="2274" as="sourcePoint" />
            <mxPoint x="600" y="2226" as="targetPoint" />
            <Array as="points" />
          </mxGeometry>
        </mxCell>
        <mxCell id="HdpUU3oz74thlldm0Am4-30" value="" style="rounded=0;html=1;jettySize=auto;orthogonalLoop=1;fontSize=11;endArrow=block;endFill=0;endSize=8;strokeWidth=1;shadow=0;labelBackgroundColor=none;edgeStyle=orthogonalEdgeStyle;exitX=1;exitY=0.5;exitDx=0;exitDy=0;entryX=0.5;entryY=0;entryDx=0;entryDy=0;" parent="WIyWlLk6GJQsqaUBKTNV-1" source="HdpUU3oz74thlldm0Am4-2" target="HdpUU3oz74thlldm0Am4-14" edge="1">
          <mxGeometry relative="1" as="geometry">
            <mxPoint x="306.99999999999955" y="1844" as="sourcePoint" />
            <mxPoint x="709" y="1851" as="targetPoint" />
            <Array as="points" />
          </mxGeometry>
        </mxCell>
        <mxCell id="HdpUU3oz74thlldm0Am4-32" value="" style="rounded=0;html=1;jettySize=auto;orthogonalLoop=1;fontSize=11;endArrow=block;endFill=0;endSize=8;strokeWidth=1;shadow=0;labelBackgroundColor=none;edgeStyle=orthogonalEdgeStyle;exitX=1;exitY=0.5;exitDx=0;exitDy=0;" parent="WIyWlLk6GJQsqaUBKTNV-1" source="HdpUU3oz74thlldm0Am4-8" edge="1">
          <mxGeometry relative="1" as="geometry">
            <mxPoint x="516" y="2027" as="sourcePoint" />
            <mxPoint x="690" y="2025" as="targetPoint" />
            <Array as="points" />
          </mxGeometry>
        </mxCell>
        <mxCell id="HdpUU3oz74thlldm0Am4-34" value="成功" style="edgeLabel;html=1;align=center;verticalAlign=middle;resizable=0;points=[];" parent="WIyWlLk6GJQsqaUBKTNV-1" vertex="1" connectable="0">
          <mxGeometry x="146.99999999999977" y="1840.0033333333336" as="geometry" />
        </mxCell>
        <mxCell id="HdpUU3oz74thlldm0Am4-35" value="否" style="edgeLabel;html=1;align=center;verticalAlign=middle;resizable=0;points=[];" parent="WIyWlLk6GJQsqaUBKTNV-1" vertex="1" connectable="0">
          <mxGeometry x="156.99999999999977" y="1844.0033333333336" as="geometry">
            <mxPoint x="50" y="48" as="offset" />
          </mxGeometry>
        </mxCell>
        <mxCell id="HdpUU3oz74thlldm0Am4-36" value="是" style="edgeLabel;html=1;align=center;verticalAlign=middle;resizable=0;points=[];" parent="WIyWlLk6GJQsqaUBKTNV-1" vertex="1" connectable="0">
          <mxGeometry x="279.9999999999998" y="1840.0033333333336" as="geometry">
            <mxPoint x="14" as="offset" />
          </mxGeometry>
        </mxCell>
        <mxCell id="HdpUU3oz74thlldm0Am4-37" value="失败" style="edgeLabel;html=1;align=center;verticalAlign=middle;resizable=0;points=[];" parent="WIyWlLk6GJQsqaUBKTNV-1" vertex="1" connectable="0">
          <mxGeometry x="159.99999999999977" y="2014.0033333333336" as="geometry" />
        </mxCell>
        <mxCell id="HdpUU3oz74thlldm0Am4-38" value="成功" style="edgeLabel;html=1;align=center;verticalAlign=middle;resizable=0;points=[];" parent="WIyWlLk6GJQsqaUBKTNV-1" vertex="1" connectable="0">
          <mxGeometry x="287.9999999999998" y="2014.0033333333336" as="geometry" />
        </mxCell>
        <mxCell id="HdpUU3oz74thlldm0Am4-39" value="否" style="edgeLabel;html=1;align=center;verticalAlign=middle;resizable=0;points=[];" parent="WIyWlLk6GJQsqaUBKTNV-1" vertex="1" connectable="0">
          <mxGeometry x="296.9999999999998" y="2025.0033333333336" as="geometry">
            <mxPoint x="50" y="48" as="offset" />
          </mxGeometry>
        </mxCell>
        <mxCell id="HdpUU3oz74thlldm0Am4-40" value="是" style="edgeLabel;html=1;align=center;verticalAlign=middle;resizable=0;points=[];" parent="WIyWlLk6GJQsqaUBKTNV-1" vertex="1" connectable="0">
          <mxGeometry x="413.9999999999998" y="2014.0033333333336" as="geometry">
            <mxPoint x="14" as="offset" />
          </mxGeometry>
        </mxCell>
        <mxCell id="HdpUU3oz74thlldm0Am4-41" value="失败" style="edgeLabel;html=1;align=center;verticalAlign=middle;resizable=0;points=[];" parent="WIyWlLk6GJQsqaUBKTNV-1" vertex="1" connectable="0">
          <mxGeometry x="293.9999999999998" y="2212.0033333333336" as="geometry" />
        </mxCell>
        <mxCell id="HdpUU3oz74thlldm0Am4-42" value="成功" style="edgeLabel;html=1;align=center;verticalAlign=middle;resizable=0;points=[];" parent="WIyWlLk6GJQsqaUBKTNV-1" vertex="1" connectable="0">
          <mxGeometry x="424.9999999999998" y="2212.0033333333336" as="geometry" />
        </mxCell>
        <mxCell id="HdpUU3oz74thlldm0Am4-43" value="是" style="edgeLabel;html=1;align=center;verticalAlign=middle;resizable=0;points=[];" parent="WIyWlLk6GJQsqaUBKTNV-1" vertex="1" connectable="0">
          <mxGeometry x="554.9999999999998" y="2212.0033333333336" as="geometry">
            <mxPoint x="14" as="offset" />
          </mxGeometry>
        </mxCell>
        <mxCell id="HdpUU3oz74thlldm0Am4-44" value="" style="rounded=0;html=1;jettySize=auto;orthogonalLoop=1;fontSize=11;endArrow=block;endFill=0;endSize=8;strokeWidth=1;shadow=0;labelBackgroundColor=none;edgeStyle=orthogonalEdgeStyle;exitX=0.5;exitY=1;exitDx=0;exitDy=0;entryX=0.5;entryY=1;entryDx=0;entryDy=0;" parent="WIyWlLk6GJQsqaUBKTNV-1" source="HdpUU3oz74thlldm0Am4-12" target="HdpUU3oz74thlldm0Am4-4" edge="1">
          <mxGeometry relative="1" as="geometry">
            <mxPoint x="507.16999999999996" y="2273" as="sourcePoint" />
            <mxPoint x="61" y="2246" as="targetPoint" />
            <Array as="points">
              <mxPoint x="512" y="2276" />
              <mxPoint x="274" y="2276" />
              <mxPoint x="83" y="2275" />
            </Array>
          </mxGeometry>
        </mxCell>
        <mxCell id="HdpUU3oz74thlldm0Am4-45" value="否" style="edgeLabel;html=1;align=center;verticalAlign=middle;resizable=0;points=[];" parent="WIyWlLk6GJQsqaUBKTNV-1" vertex="1" connectable="0">
          <mxGeometry x="443.9999999999998" y="2212.0033333333336" as="geometry">
            <mxPoint x="50" y="48" as="offset" />
          </mxGeometry>
        </mxCell>
        <mxCell id="jc5Kkp1WuSsnl2Odpbap-0" value="开始" style="rounded=1;whiteSpace=wrap;html=1;fontSize=12;glass=0;strokeWidth=1;shadow=0;" vertex="1" parent="WIyWlLk6GJQsqaUBKTNV-1">
          <mxGeometry x="266" y="2407" width="120" height="40" as="geometry" />
        </mxCell>
        <mxCell id="jc5Kkp1WuSsnl2Odpbap-1" value="是否命中" style="rhombus;whiteSpace=wrap;html=1;shadow=0;fontFamily=Helvetica;fontSize=12;align=center;strokeWidth=1;spacing=6;spacingTop=-4;" vertex="1" parent="WIyWlLk6GJQsqaUBKTNV-1">
          <mxGeometry x="288" y="2484" width="86" height="60" as="geometry" />
        </mxCell>
        <mxCell id="jc5Kkp1WuSsnl2Odpbap-2" value="从Cache中直接得到数据" style="rounded=1;whiteSpace=wrap;html=1;fontSize=12;glass=0;strokeWidth=1;shadow=0;" vertex="1" parent="WIyWlLk6GJQsqaUBKTNV-1">
          <mxGeometry x="66" y="2739" width="176" height="33" as="geometry" />
        </mxCell>
        <mxCell id="jc5Kkp1WuSsnl2Odpbap-3" value="是否dirty" style="rhombus;whiteSpace=wrap;html=1;shadow=0;fontFamily=Helvetica;fontSize=12;align=center;strokeWidth=1;spacing=6;spacingTop=-4;" vertex="1" parent="WIyWlLk6GJQsqaUBKTNV-1">
          <mxGeometry x="437" y="2567" width="86" height="60" as="geometry" />
        </mxCell>
        <mxCell id="jc5Kkp1WuSsnl2Odpbap-4" value="将dirty的Cache line写回到内存" style="rounded=1;whiteSpace=wrap;html=1;fontSize=12;glass=0;strokeWidth=1;shadow=0;" vertex="1" parent="WIyWlLk6GJQsqaUBKTNV-1">
          <mxGeometry x="392" y="2676" width="176" height="33" as="geometry" />
        </mxCell>
        <mxCell id="jc5Kkp1WuSsnl2Odpbap-5" value="从内存中取回正确的Cache line" style="rounded=1;whiteSpace=wrap;html=1;fontSize=12;glass=0;strokeWidth=1;shadow=0;" vertex="1" parent="WIyWlLk6GJQsqaUBKTNV-1">
          <mxGeometry x="392" y="2735" width="176" height="33" as="geometry" />
        </mxCell>
        <mxCell id="jc5Kkp1WuSsnl2Odpbap-7" value="是否写入" style="rhombus;whiteSpace=wrap;html=1;shadow=0;fontFamily=Helvetica;fontSize=12;align=center;strokeWidth=1;spacing=6;spacingTop=-4;" vertex="1" parent="WIyWlLk6GJQsqaUBKTNV-1">
          <mxGeometry x="184" y="2556" width="86" height="60" as="geometry" />
        </mxCell>
        <mxCell id="jc5Kkp1WuSsnl2Odpbap-8" value="将数据写到Cache中，dirty为1" style="rounded=1;whiteSpace=wrap;html=1;fontSize=12;glass=0;strokeWidth=1;shadow=0;" vertex="1" parent="WIyWlLk6GJQsqaUBKTNV-1">
          <mxGeometry x="69" y="2668" width="176" height="33" as="geometry" />
        </mxCell>
      </root>
    </mxGraphModel>
  </diagram>
</mxfile>
